<?xml version="1.0" encoding="iso-8859-1"?>
<!-- Generator: Adobe Illustrator 18.0.0, SVG Export Plug-In . SVG Version: 6.00 Build 0)  -->
<!DOCTYPE svg PUBLIC "-//W3C//DTD SVG 1.1//EN" "http://www.w3.org/Graphics/SVG/1.1/DTD/svg11.dtd">
<svg version="1.1" id="Capa_1" xmlns="http://www.w3.org/2000/svg" xmlns:xlink="http://www.w3.org/1999/xlink" x="0px" y="0px"
	 viewBox="0 0 298.667 298.667" style="enable-background:new 0 0 298.667 298.667;" xml:space="preserve">
<g>
	<path d="M0.604,134.717c-1.483,3.342-0.15,7.264,3.063,9.01l28.862,15.682c3.141,1.707,7.063,0.779,9.106-2.154l22.406-32.165
		c11.774,28.66,3.631,113.167-0.035,145.359c-0.367,3.219,0.658,6.442,2.817,8.858c2.159,2.416,5.246,3.792,8.486,3.792h148.047
		c3.238,0,6.32-1.382,8.477-3.796s3.193-5.637,2.827-8.854c-3.666-32.192-11.809-116.698-0.035-145.359l22.406,32.165
		c2.043,2.933,5.965,3.861,9.106,2.154L295,143.727c3.213-1.746,4.546-5.667,3.063-9.01L255.015,37.71
		c-4.193-9.437-12.08-16.759-21.829-20.249c-2.582-0.924-5.233-1.548-7.908-1.892l-25.618,0c-3.516,0-6.541,2.451-7.28,5.889
		c-3.519,16.365-21.452,28.822-43.046,28.822c-21.594,0-39.527-12.456-43.046-28.821c-0.738-3.431-3.771-5.889-7.28-5.889l-25.618,0
		c-2.674,0.344-5.326,0.969-7.908,1.892c-9.749,3.49-17.636,10.813-21.829,20.249L0.604,134.717z"/>
</g>
<g>
</g>
<g>
</g>
<g>
</g>
<g>
</g>
<g>
</g>
<g>
</g>
<g>
</g>
<g>
</g>
<g>
</g>
<g>
</g>
<g>
</g>
<g>
</g>
<g>
</g>
<g>
</g>
<g>
</g>
</svg>
